# xmcd
#
# Track frame offsets: 
#        150
#        11579
#        22998
#        35210
#        48683
#        58988
#        73481
#        82898
#        96859
#        109062
#        118737
#        127646
#        138341
#        152105
#
# Disc length: 2184 seconds
#
# Revision: 0
# Processed by: cddbd v1.5.1PL0 Copyright (c) Steve Scherf et al.
# Submitted via: ExactAudioCopy v0.95a5
#
DISCID=c208860e
DTITLE=Willie Nelson - Willie Nelson Night Life
DYEAR=2004
DGENRE=Country
TTITLE0=Night Life
TTITLE1=Is There Something On Your Mind
TTITLE2=I Can't Find The Time
TTITLE3=Everything But You
TTITLE4=Blame It On The Times
TTITLE5=So Much To Do
TTITLE6=Building Heartaches
TTITLE7=Rainy Day Blues
TTITLE8=Shelter Of Your Arms
TTITLE9=Let's Pretend
TTITLE10=Waiting Time
TTITLE11=Go Away
TTITLE12=No Tomorrow In Sight
TTITLE13=I Hope So
EXTD=
EXTT0=
EXTT1=
EXTT2=
EXTT3=
EXTT4=
EXTT5=
EXTT6=
EXTT7=
EXTT8=
EXTT9=
EXTT10=
EXTT11=
EXTT12=
EXTT13=
PLAYORDER=
